HIERARCHY
ROOT Hips
{
	OFFSET -148.214600 91.510246 -151.741394
	CHANNELS 6 Xposition Yposition Zposition Zrotation Yrotation Xrotation 
	JOINT LeftUpLeg
	{
		OFFSET 0.103461 1.857822 10.548510
		CHANNELS 3 Zrotation Yrotation Xrotation
		JOINT LeftLeg
		{
			OFFSET 43.500000 -0.000019 0.000002
			CHANNELS 3 Zrotation Yrotation Xrotation
			JOINT LeftFoot
			{
				OFFSET 42.372192 0.000011 -0.000003
				CHANNELS 3 Zrotation Yrotation Xrotation
				JOINT LeftToe
				{
					OFFSET 17.299999 -0.000000 0.000010
					CHANNELS 3 Zrotation Yrotation Xrotation
					End Site
					{
						OFFSET 0.000000 0.000000 0.000000
					}
				}
			}
		}
	}
	JOINT RightUpLeg
	{
		OFFSET 0.103455 1.857820 -10.548494
		CHANNELS 3 Zrotation Yrotation Xrotation
		JOINT RightLeg
		{
			OFFSET 43.500046 -0.000011 0.000019
			CHANNELS 3 Zrotation Yrotation Xrotation
			JOINT RightFoot
			{
				OFFSET 42.372261 -0.000008 0.000011
				CHANNELS 3 Zrotation Yrotation Xrotation
				JOINT RightToe
				{
					OFFSET 17.299988 -0.000007 0.000010
					CHANNELS 3 Zrotation Yrotation Xrotation
					End Site
					{
						OFFSET 0.000000 0.000000 0.000000
					}
				}
			}
		}
	}
	JOINT Spine
	{
		OFFSET 6.901968 -2.603730 0.000000
		CHANNELS 3 Zrotation Yrotation Xrotation
		JOINT Spine1
		{
			OFFSET 12.588100 -0.000004 0.000000
			CHANNELS 3 Zrotation Yrotation Xrotation
			JOINT Spine2
			{
				OFFSET 12.343204 0.000010 -0.000008
				CHANNELS 3 Zrotation Yrotation Xrotation
				JOINT Neck
				{
					OFFSET 25.832897 0.000000 -0.000001
					CHANNELS 3 Zrotation Yrotation Xrotation
					JOINT Head
					{
						OFFSET 11.766605 0.000003 0.000004
						CHANNELS 3 Zrotation Yrotation Xrotation
						End Site
						{
							OFFSET 0.000000 0.000000 0.000000
						}
					}
				}
				JOINT LeftShoulder
				{
					OFFSET 19.745903 -1.480373 6.000118
					CHANNELS 3 Zrotation Yrotation Xrotation
					JOINT LeftArm
					{
						OFFSET 11.284121 -0.000002 -0.000023
						CHANNELS 3 Zrotation Yrotation Xrotation
						JOINT LeftForeArm
						{
							OFFSET 33.000046 -0.000008 0.000023
							CHANNELS 3 Zrotation Yrotation Xrotation
							JOINT LeftHand
							{
								OFFSET 25.200012 0.000016 0.000008
								CHANNELS 3 Zrotation Yrotation Xrotation
								End Site
								{
									OFFSET 0.000000 0.000000 0.000000
								}
							}
						}
					}
				}
				JOINT RightShoulder
				{
					OFFSET 19.746101 -1.480373 -6.000067
					CHANNELS 3 Zrotation Yrotation Xrotation
					JOINT RightArm
					{
						OFFSET 11.284146 -0.000018 -0.000007
						CHANNELS 3 Zrotation Yrotation Xrotation
						JOINT RightForeArm
						{
							OFFSET 33.000080 0.000028 0.000017
							CHANNELS 3 Zrotation Yrotation Xrotation
							JOINT RightHand
							{
								OFFSET 25.199787 0.000143 0.000415
								CHANNELS 3 Zrotation Yrotation Xrotation
								End Site
								{
									OFFSET 0.000000 0.000000 0.000000
								}
							}
						}
					}
				}
			}
		}
	}
}
MOTION
Frames: 5
Frame Time: 0.033333
-148.214600 91.510246 -151.741394 90.713744 7.174450 91.582755 -176.978930 -2.092708 172.212865 -15.403082 -3.138750 0.080713 84.715478 0.145697 0.591003 21.454551 0.003091 -0.000001 -176.935272 -1.439114 176.567248 -16.127861 4.068465 12.413443 85.005283 -8.674306 0.203754 21.454558 -0.003112 -0.000018 6.891543 0.205492 0.154028 3.770870 0.440285 0.314976 3.452772 0.442352 0.312333 9.388016 -1.035747 2.156041 -6.555022 1.099659 1.708648 -83.477507 -78.280607 -99.389470 -12.576159 -1.400079 -17.689739 -17.344301 -15.785020 1.107598 14.777032 3.357499 2.126265 33.330090 86.416134 -145.025653 0.250822 -9.577757 26.139020 -23.854974 19.557970 -1.436888 14.496004 0.514843 -11.312237 
-148.223907 91.510643 -151.668594 90.704871 7.185437 91.629809 -176.920068 -2.122111 172.282861 -15.390786 -3.168559 0.080715 84.747730 0.145699 0.589966 21.454553 0.003097 0.000002 -176.862107 -1.456299 176.582738 -16.100504 4.077860 12.433827 85.011075 -8.688503 0.203759 21.454560 -0.003106 -0.000019 6.883485 0.205488 0.154026 3.754754 0.440279 0.314980 3.436640 0.442349 0.312337 8.988782 -1.145054 1.936272 -6.496643 1.363394 1.387767 -83.548841 -78.324252 -99.313259 -12.569523 -1.352393 -17.690871 -17.410804 -15.791944 1.107592 14.798623 3.386247 2.090183 33.427373 86.416189 -144.928814 0.275565 -9.548788 26.294205 -23.854974 19.568475 -1.436891 14.506461 0.414276 -11.364218 
-148.240402 91.511726 -151.510406 90.691826 7.206431 91.731995 -176.792753 -2.165699 172.391926 -15.358509 -3.199414 0.082629 84.814578 0.142539 0.580286 21.454551 0.003092 0.000002 -176.710094 -1.481794 176.628309 -16.050221 4.101983 12.469920 85.027495 -8.713931 0.198607 21.454562 -0.003111 -0.000016 6.863156 0.205482 0.154026 3.714079 0.437495 0.314983 3.395964 0.439541 0.312326 8.215083 -1.314243 1.492743 -6.434575 1.749417 0.789016 -83.746138 -78.400483 -99.107090 -12.556159 -1.245152 -17.703400 -17.586602 -15.821737 1.107602 14.872191 3.429363 2.099732 34.157011 86.412480 -144.203953 0.345244 -9.504488 26.336561 -23.852093 19.536638 -1.436890 14.615662 0.715630 -10.689514 
-148.260101 91.512512 -151.358093 90.675378 7.226169 91.798733 -176.670834 -2.202190 172.418290 -15.336654 -3.192879 0.109324 84.885598 0.118808 0.557126 21.454551 0.003097 -0.000000 -176.572602 -1.515112 176.632312 -16.010768 4.122117 12.511015 85.039202 -8.742714 0.193367 21.454558 -0.003111 -0.000016 6.843650 0.205488 0.155509 3.675078 0.431196 0.317799 3.356979 0.433253 0.315177 7.550777 -1.456425 1.082127 -6.434857 1.956766 0.277082 -83.883104 -78.452523 -98.964004 -12.568418 -1.108955 -17.751645 -17.748223 -15.869210 1.107601 15.006602 3.533014 2.041703 35.168115 86.400814 -143.199574 0.370453 -9.591455 26.071308 -23.814221 19.579246 -1.438980 14.647759 2.024016 -9.935185 
-148.287796 91.513344 -151.216507 90.644021 7.243002 91.800208 -176.556797 -2.256604 172.396597 -15.329540 -3.188767 0.127793 84.964493 0.099302 0.526219 21.454553 0.003088 0.000000 -176.451749 -1.574798 176.540596 -15.968692 4.133439 12.573586 85.033915 -8.786039 0.189300 21.454560 -0.003106 -0.000016 6.828575 0.205489 0.169223 3.644946 0.423073 0.345047 3.326856 0.425272 0.342479 6.925486 -1.539901 0.731785 -6.413149 2.062456 -0.133487 -83.889196 -78.473061 -98.955904 -12.628920 -0.937553 -17.837903 -17.831881 -15.925319 1.107601 15.133264 3.802301 1.791447 36.079805 86.402665 -142.293864 0.315706 -9.795476 26.025193 -23.891858 19.673262 -1.446109 14.485416 4.176630 -9.852591 
